<mxfile host="app.diagrams.net" modified="2021-03-02T03:51:45.643Z" agent="5.0 (Macintosh; Intel Mac OS X 10_15_7) AppleWebKit/537.36 (KHTML, like Gecko) Chrome/88.0.4324.182 Safari/537.36" etag="PcY1JXyqfIrzk84lkBED" version="14.4.3" type="github">
  <diagram id="S_Vtg1tC3hXxcEHw8p99" name="Page-1">
    <mxGraphModel dx="2066" dy="2300" grid="1" gridSize="10" guides="1" tooltips="1" connect="1" arrows="1" fold="1" page="1" pageScale="1" pageWidth="827" pageHeight="1169" math="0" shadow="0">
      <root>
        <mxCell id="0" />
        <mxCell id="1" parent="0" />
        <mxCell id="GCCHpUo1PIDC4ZOt7AxQ-62" value="" style="rounded=1;whiteSpace=wrap;html=1;strokeColor=#8A8A8A;fillColor=#FFFFFF;" parent="1" vertex="1">
          <mxGeometry x="705" y="-70" width="245" height="1230" as="geometry" />
        </mxCell>
        <mxCell id="GCCHpUo1PIDC4ZOt7AxQ-51" value="" style="rounded=1;whiteSpace=wrap;html=1;" parent="1" vertex="1">
          <mxGeometry x="320" y="-60" width="370" height="710" as="geometry" />
        </mxCell>
        <mxCell id="GCCHpUo1PIDC4ZOt7AxQ-43" value="" style="rounded=1;whiteSpace=wrap;html=1;" parent="1" vertex="1">
          <mxGeometry x="330" y="660" width="350" height="480" as="geometry" />
        </mxCell>
        <mxCell id="ejTYExqUI6OF1oC2EcKi-1" style="edgeStyle=orthogonalEdgeStyle;rounded=0;orthogonalLoop=1;jettySize=auto;html=1;exitX=0.5;exitY=1;exitDx=0;exitDy=0;entryX=0.5;entryY=0;entryDx=0;entryDy=0;" edge="1" parent="1" source="GCCHpUo1PIDC4ZOt7AxQ-3" target="GCCHpUo1PIDC4ZOt7AxQ-4">
          <mxGeometry relative="1" as="geometry" />
        </mxCell>
        <mxCell id="GCCHpUo1PIDC4ZOt7AxQ-3" value="&lt;font style=&quot;font-size: 14px&quot;&gt;店品”未上架“case&lt;/font&gt;" style="ellipse;whiteSpace=wrap;html=1;" parent="1" vertex="1">
          <mxGeometry x="431" y="-140" width="120" height="60" as="geometry" />
        </mxCell>
        <mxCell id="ejTYExqUI6OF1oC2EcKi-4" value="" style="edgeStyle=orthogonalEdgeStyle;rounded=0;orthogonalLoop=1;jettySize=auto;html=1;" edge="1" parent="1" source="GCCHpUo1PIDC4ZOt7AxQ-4" target="ejTYExqUI6OF1oC2EcKi-3">
          <mxGeometry relative="1" as="geometry" />
        </mxCell>
        <mxCell id="ejTYExqUI6OF1oC2EcKi-11" value="是" style="edgeLabel;html=1;align=center;verticalAlign=middle;resizable=0;points=[];" vertex="1" connectable="0" parent="ejTYExqUI6OF1oC2EcKi-4">
          <mxGeometry x="-0.55" y="-3" relative="1" as="geometry">
            <mxPoint x="3" y="1" as="offset" />
          </mxGeometry>
        </mxCell>
        <mxCell id="GCCHpUo1PIDC4ZOt7AxQ-4" value="&lt;font style=&quot;font-size: 14px&quot;&gt;是否为12品&lt;/font&gt;" style="rhombus;whiteSpace=wrap;html=1;" parent="1" vertex="1">
          <mxGeometry x="418" y="-30" width="146" height="80" as="geometry" />
        </mxCell>
        <mxCell id="GCCHpUo1PIDC4ZOt7AxQ-7" value="1. 周对周店品推动 w-2 周四；&lt;br&gt;2. 周对周快照下发 w-1 周四；&lt;br&gt;统一用生效周或生效日（12一刷）&amp;nbsp;" style="shape=note;whiteSpace=wrap;html=1;backgroundOutline=1;darkOpacity=0.05;align=left;" parent="1" vertex="1">
          <mxGeometry x="115" y="-170" width="190" height="100" as="geometry" />
        </mxCell>
        <mxCell id="GCCHpUo1PIDC4ZOt7AxQ-9" value="清单&amp;amp;商品身份问题" style="text;html=1;strokeColor=#FF6666;fillColor=none;align=left;verticalAlign=middle;whiteSpace=wrap;rounded=0;" parent="1" vertex="1">
          <mxGeometry x="330" y="-50" width="116" height="20" as="geometry" />
        </mxCell>
        <mxCell id="GCCHpUo1PIDC4ZOt7AxQ-17" value="" style="edgeStyle=orthogonalEdgeStyle;rounded=0;orthogonalLoop=1;jettySize=auto;html=1;" parent="1" source="GCCHpUo1PIDC4ZOt7AxQ-11" target="GCCHpUo1PIDC4ZOt7AxQ-16" edge="1">
          <mxGeometry relative="1" as="geometry" />
        </mxCell>
        <mxCell id="GCCHpUo1PIDC4ZOt7AxQ-18" value="是" style="edgeLabel;html=1;align=center;verticalAlign=middle;resizable=0;points=[];" parent="GCCHpUo1PIDC4ZOt7AxQ-17" vertex="1" connectable="0">
          <mxGeometry x="-0.1826" y="3" relative="1" as="geometry">
            <mxPoint x="6" y="3" as="offset" />
          </mxGeometry>
        </mxCell>
        <mxCell id="GCCHpUo1PIDC4ZOt7AxQ-53" value="" style="edgeStyle=none;rounded=0;jumpStyle=gap;orthogonalLoop=1;jettySize=auto;html=1;" parent="1" source="GCCHpUo1PIDC4ZOt7AxQ-11" target="GCCHpUo1PIDC4ZOt7AxQ-52" edge="1">
          <mxGeometry relative="1" as="geometry" />
        </mxCell>
        <mxCell id="ejTYExqUI6OF1oC2EcKi-22" value="否" style="edgeLabel;html=1;align=center;verticalAlign=middle;resizable=0;points=[];" vertex="1" connectable="0" parent="GCCHpUo1PIDC4ZOt7AxQ-53">
          <mxGeometry x="-0.2667" y="-2" relative="1" as="geometry">
            <mxPoint as="offset" />
          </mxGeometry>
        </mxCell>
        <mxCell id="GCCHpUo1PIDC4ZOt7AxQ-11" value="不在上游清单" style="rhombus;whiteSpace=wrap;html=1;" parent="1" vertex="1">
          <mxGeometry x="410" y="350" width="160" height="80" as="geometry" />
        </mxCell>
        <mxCell id="GCCHpUo1PIDC4ZOt7AxQ-13" value="0：非日配在架（非问题）" style="whiteSpace=wrap;html=1;align=left;" parent="1" vertex="1">
          <mxGeometry x="727.5" y="50" width="152.5" height="60" as="geometry" />
        </mxCell>
        <mxCell id="GCCHpUo1PIDC4ZOt7AxQ-16" value="3：上游未推送（非问题）" style="whiteSpace=wrap;html=1;align=left;" parent="1" vertex="1">
          <mxGeometry x="727.5" y="360" width="152.5" height="60" as="geometry" />
        </mxCell>
        <mxCell id="GCCHpUo1PIDC4ZOt7AxQ-22" value="" style="edgeStyle=orthogonalEdgeStyle;rounded=0;orthogonalLoop=1;jettySize=auto;html=1;" parent="1" source="GCCHpUo1PIDC4ZOt7AxQ-19" target="GCCHpUo1PIDC4ZOt7AxQ-21" edge="1">
          <mxGeometry relative="1" as="geometry" />
        </mxCell>
        <mxCell id="GCCHpUo1PIDC4ZOt7AxQ-23" value="是" style="edgeLabel;html=1;align=center;verticalAlign=middle;resizable=0;points=[];" parent="GCCHpUo1PIDC4ZOt7AxQ-22" vertex="1" connectable="0">
          <mxGeometry x="-0.0458" y="1" relative="1" as="geometry">
            <mxPoint x="-4" as="offset" />
          </mxGeometry>
        </mxCell>
        <mxCell id="GCCHpUo1PIDC4ZOt7AxQ-57" value="" style="edgeStyle=none;rounded=0;jumpStyle=gap;orthogonalLoop=1;jettySize=auto;html=1;" parent="1" source="GCCHpUo1PIDC4ZOt7AxQ-19" target="GCCHpUo1PIDC4ZOt7AxQ-27" edge="1">
          <mxGeometry relative="1" as="geometry" />
        </mxCell>
        <mxCell id="ejTYExqUI6OF1oC2EcKi-24" value="否" style="edgeLabel;html=1;align=center;verticalAlign=middle;resizable=0;points=[];" vertex="1" connectable="0" parent="GCCHpUo1PIDC4ZOt7AxQ-57">
          <mxGeometry x="-0.0305" y="-2" relative="1" as="geometry">
            <mxPoint as="offset" />
          </mxGeometry>
        </mxCell>
        <mxCell id="GCCHpUo1PIDC4ZOt7AxQ-19" value="是否为滞销品" style="rhombus;whiteSpace=wrap;html=1;" parent="1" vertex="1">
          <mxGeometry x="410" y="555" width="160" height="80" as="geometry" />
        </mxCell>
        <mxCell id="GCCHpUo1PIDC4ZOt7AxQ-21" value="5：滞销品未上架（非问题）" style="whiteSpace=wrap;html=1;" parent="1" vertex="1">
          <mxGeometry x="730" y="565" width="152.5" height="60" as="geometry" />
        </mxCell>
        <mxCell id="GCCHpUo1PIDC4ZOt7AxQ-32" value="" style="edgeStyle=orthogonalEdgeStyle;rounded=0;orthogonalLoop=1;jettySize=auto;html=1;" parent="1" source="GCCHpUo1PIDC4ZOt7AxQ-27" target="GCCHpUo1PIDC4ZOt7AxQ-31" edge="1">
          <mxGeometry relative="1" as="geometry" />
        </mxCell>
        <mxCell id="ejTYExqUI6OF1oC2EcKi-26" value="否" style="edgeLabel;html=1;align=center;verticalAlign=middle;resizable=0;points=[];" vertex="1" connectable="0" parent="GCCHpUo1PIDC4ZOt7AxQ-32">
          <mxGeometry x="0.1579" y="4" relative="1" as="geometry">
            <mxPoint x="-5" as="offset" />
          </mxGeometry>
        </mxCell>
        <mxCell id="GCCHpUo1PIDC4ZOt7AxQ-34" value="" style="edgeStyle=orthogonalEdgeStyle;rounded=0;orthogonalLoop=1;jettySize=auto;html=1;" parent="1" source="GCCHpUo1PIDC4ZOt7AxQ-27" target="GCCHpUo1PIDC4ZOt7AxQ-33" edge="1">
          <mxGeometry relative="1" as="geometry" />
        </mxCell>
        <mxCell id="GCCHpUo1PIDC4ZOt7AxQ-35" value="是" style="edgeLabel;html=1;align=center;verticalAlign=middle;resizable=0;points=[];" parent="GCCHpUo1PIDC4ZOt7AxQ-34" vertex="1" connectable="0">
          <mxGeometry x="-0.1484" y="2" relative="1" as="geometry">
            <mxPoint as="offset" />
          </mxGeometry>
        </mxCell>
        <mxCell id="GCCHpUo1PIDC4ZOt7AxQ-27" value="sku规格问题" style="rhombus;whiteSpace=wrap;html=1;" parent="1" vertex="1">
          <mxGeometry x="406" y="717.5" width="170" height="80" as="geometry" />
        </mxCell>
        <mxCell id="GCCHpUo1PIDC4ZOt7AxQ-30" value="层板主题粒度填品问题" style="text;html=1;strokeColor=#FF3333;fillColor=none;align=center;verticalAlign=middle;whiteSpace=wrap;rounded=0;" parent="1" vertex="1">
          <mxGeometry x="339" y="685" width="130" height="20" as="geometry" />
        </mxCell>
        <mxCell id="GCCHpUo1PIDC4ZOt7AxQ-40" value="" style="edgeStyle=orthogonalEdgeStyle;rounded=0;orthogonalLoop=1;jettySize=auto;html=1;" parent="1" source="GCCHpUo1PIDC4ZOt7AxQ-31" target="GCCHpUo1PIDC4ZOt7AxQ-39" edge="1">
          <mxGeometry relative="1" as="geometry" />
        </mxCell>
        <mxCell id="GCCHpUo1PIDC4ZOt7AxQ-41" value="是" style="edgeLabel;html=1;align=center;verticalAlign=middle;resizable=0;points=[];" parent="GCCHpUo1PIDC4ZOt7AxQ-40" vertex="1" connectable="0">
          <mxGeometry x="-0.1273" y="2" relative="1" as="geometry">
            <mxPoint as="offset" />
          </mxGeometry>
        </mxCell>
        <mxCell id="krz_2XrXr_R0RCQD7uE6-12" value="" style="edgeStyle=none;rounded=0;orthogonalLoop=1;jettySize=auto;html=1;" parent="1" source="GCCHpUo1PIDC4ZOt7AxQ-31" target="krz_2XrXr_R0RCQD7uE6-10" edge="1">
          <mxGeometry relative="1" as="geometry" />
        </mxCell>
        <mxCell id="ejTYExqUI6OF1oC2EcKi-25" value="否" style="edgeLabel;html=1;align=center;verticalAlign=middle;resizable=0;points=[];" vertex="1" connectable="0" parent="krz_2XrXr_R0RCQD7uE6-12">
          <mxGeometry x="-0.36" y="-2" relative="1" as="geometry">
            <mxPoint x="1" as="offset" />
          </mxGeometry>
        </mxCell>
        <mxCell id="GCCHpUo1PIDC4ZOt7AxQ-31" value="空间及PSD约束" style="rhombus;whiteSpace=wrap;html=1;" parent="1" vertex="1">
          <mxGeometry x="401" y="830" width="180" height="80" as="geometry" />
        </mxCell>
        <mxCell id="krz_2XrXr_R0RCQD7uE6-14" value="" style="edgeStyle=none;rounded=0;orthogonalLoop=1;jettySize=auto;html=1;exitX=1;exitY=0.5;exitDx=0;exitDy=0;" parent="1" source="GCCHpUo1PIDC4ZOt7AxQ-33" target="GCCHpUo1PIDC4ZOt7AxQ-46" edge="1">
          <mxGeometry relative="1" as="geometry" />
        </mxCell>
        <mxCell id="GCCHpUo1PIDC4ZOt7AxQ-33" value="6：sku 高度、纵深”异常“&lt;br&gt;（过程日志分析）" style="whiteSpace=wrap;html=1;align=left;" parent="1" vertex="1">
          <mxGeometry x="730" y="725" width="160" height="65" as="geometry" />
        </mxCell>
        <mxCell id="GCCHpUo1PIDC4ZOt7AxQ-49" style="edgeStyle=none;rounded=0;jumpStyle=gap;orthogonalLoop=1;jettySize=auto;html=1;exitX=1;exitY=0.5;exitDx=0;exitDy=0;entryX=0;entryY=0.5;entryDx=0;entryDy=0;entryPerimeter=0;" parent="1" source="GCCHpUo1PIDC4ZOt7AxQ-39" target="GCCHpUo1PIDC4ZOt7AxQ-48" edge="1">
          <mxGeometry relative="1" as="geometry" />
        </mxCell>
        <mxCell id="GCCHpUo1PIDC4ZOt7AxQ-39" value="7：同层板主题内的上品问题&amp;nbsp;&lt;br&gt;（过程日志待分析）" style="whiteSpace=wrap;html=1;align=left;" parent="1" vertex="1">
          <mxGeometry x="730" y="840" width="160" height="60" as="geometry" />
        </mxCell>
        <mxCell id="GCCHpUo1PIDC4ZOt7AxQ-44" style="edgeStyle=orthogonalEdgeStyle;rounded=0;orthogonalLoop=1;jettySize=auto;html=1;exitX=0.5;exitY=1;exitDx=0;exitDy=0;" parent="1" source="GCCHpUo1PIDC4ZOt7AxQ-43" target="GCCHpUo1PIDC4ZOt7AxQ-43" edge="1">
          <mxGeometry relative="1" as="geometry" />
        </mxCell>
        <mxCell id="GCCHpUo1PIDC4ZOt7AxQ-46" value="1. 显著地高于该层板主题下其他的品，&amp;gt; 5cm；&lt;br&gt;2. 该品纵深高于货架层板纵深；&lt;br&gt;eg. 显著地高于该层板主题下其他的品，上该品带来的增益不足以抵消带来的空间损失（不上该品，上更多其他的品）；" style="shape=note;whiteSpace=wrap;html=1;backgroundOutline=1;darkOpacity=0.05;align=left;" parent="1" vertex="1">
          <mxGeometry x="990" y="717.5" width="340" height="80" as="geometry" />
        </mxCell>
        <mxCell id="GCCHpUo1PIDC4ZOt7AxQ-48" value="1. 该层板主题内的上品都是必上&amp;amp;该品为选上品；&lt;br&gt;2. 该层板主题内的上品有选上品&amp;amp;该品PSD较低；" style="shape=note;whiteSpace=wrap;html=1;backgroundOutline=1;darkOpacity=0.05;align=left;" parent="1" vertex="1">
          <mxGeometry x="990" y="830" width="340" height="80" as="geometry" />
        </mxCell>
        <mxCell id="GCCHpUo1PIDC4ZOt7AxQ-54" value="" style="edgeStyle=none;rounded=0;jumpStyle=gap;orthogonalLoop=1;jettySize=auto;html=1;" parent="1" source="GCCHpUo1PIDC4ZOt7AxQ-52" target="GCCHpUo1PIDC4ZOt7AxQ-19" edge="1">
          <mxGeometry relative="1" as="geometry" />
        </mxCell>
        <mxCell id="ejTYExqUI6OF1oC2EcKi-23" value="否" style="edgeLabel;html=1;align=center;verticalAlign=middle;resizable=0;points=[];" vertex="1" connectable="0" parent="GCCHpUo1PIDC4ZOt7AxQ-54">
          <mxGeometry x="-0.12" y="1" relative="1" as="geometry">
            <mxPoint as="offset" />
          </mxGeometry>
        </mxCell>
        <mxCell id="GCCHpUo1PIDC4ZOt7AxQ-56" value="" style="edgeStyle=none;rounded=0;jumpStyle=gap;orthogonalLoop=1;jettySize=auto;html=1;" parent="1" source="GCCHpUo1PIDC4ZOt7AxQ-52" target="GCCHpUo1PIDC4ZOt7AxQ-55" edge="1">
          <mxGeometry relative="1" as="geometry" />
        </mxCell>
        <mxCell id="GCCHpUo1PIDC4ZOt7AxQ-58" value="是" style="edgeLabel;html=1;align=center;verticalAlign=middle;resizable=0;points=[];" parent="GCCHpUo1PIDC4ZOt7AxQ-56" vertex="1" connectable="0">
          <mxGeometry x="-0.0649" y="1" relative="1" as="geometry">
            <mxPoint as="offset" />
          </mxGeometry>
        </mxCell>
        <mxCell id="GCCHpUo1PIDC4ZOt7AxQ-52" value="&lt;i&gt;非必上品&lt;/i&gt;" style="rhombus;whiteSpace=wrap;html=1;strokeColor=#8A8A8A;fillColor=#BFBFBF;" parent="1" vertex="1">
          <mxGeometry x="420" y="450" width="140" height="80" as="geometry" />
        </mxCell>
        <mxCell id="krz_2XrXr_R0RCQD7uE6-31" style="edgeStyle=none;rounded=0;orthogonalLoop=1;jettySize=auto;html=1;exitX=1;exitY=0.5;exitDx=0;exitDy=0;entryX=0;entryY=0.5;entryDx=0;entryDy=0;entryPerimeter=0;" parent="1" source="GCCHpUo1PIDC4ZOt7AxQ-55" target="krz_2XrXr_R0RCQD7uE6-30" edge="1">
          <mxGeometry relative="1" as="geometry" />
        </mxCell>
        <mxCell id="GCCHpUo1PIDC4ZOt7AxQ-55" value="4：非必上品（高销选上也进入下游分析），psdAmount&amp;nbsp; 排序" style="whiteSpace=wrap;html=1;align=left;" parent="1" vertex="1">
          <mxGeometry x="727.5" y="460" width="200" height="60" as="geometry" />
        </mxCell>
        <mxCell id="GCCHpUo1PIDC4ZOt7AxQ-59" value="必上品或者高销选上" style="text;html=1;strokeColor=none;fillColor=none;align=center;verticalAlign=middle;whiteSpace=wrap;rounded=0;" parent="1" vertex="1">
          <mxGeometry x="590" y="685" width="70" height="20" as="geometry" />
        </mxCell>
        <mxCell id="krz_2XrXr_R0RCQD7uE6-27" style="edgeStyle=none;rounded=0;orthogonalLoop=1;jettySize=auto;html=1;exitX=1;exitY=0.5;exitDx=0;exitDy=0;entryX=0;entryY=0.5;entryDx=0;entryDy=0;dashed=1;" parent="1" source="GCCHpUo1PIDC4ZOt7AxQ-65" target="krz_2XrXr_R0RCQD7uE6-10" edge="1">
          <mxGeometry relative="1" as="geometry" />
        </mxCell>
        <mxCell id="GCCHpUo1PIDC4ZOt7AxQ-65" value="必上、有空间&amp;amp;高PSD" style="ellipse;whiteSpace=wrap;html=1;strokeColor=#8A8A8A;fillColor=#FFFFFF;" parent="1" vertex="1">
          <mxGeometry x="260" y="940" width="120" height="80" as="geometry" />
        </mxCell>
        <mxCell id="GCCHpUo1PIDC4ZOt7AxQ-71" value="状态返回码" style="text;html=1;strokeColor=#CC0000;fillColor=none;align=center;verticalAlign=middle;whiteSpace=wrap;rounded=0;" parent="1" vertex="1">
          <mxGeometry x="827" y="1130" width="110" height="20" as="geometry" />
        </mxCell>
        <mxCell id="ejTYExqUI6OF1oC2EcKi-27" style="edgeStyle=orthogonalEdgeStyle;rounded=0;orthogonalLoop=1;jettySize=auto;html=1;exitX=1;exitY=0.5;exitDx=0;exitDy=0;entryX=0;entryY=0.5;entryDx=0;entryDy=0;dashed=1;" edge="1" parent="1" source="GCCHpUo1PIDC4ZOt7AxQ-73" target="ejTYExqUI6OF1oC2EcKi-8">
          <mxGeometry relative="1" as="geometry" />
        </mxCell>
        <mxCell id="GCCHpUo1PIDC4ZOt7AxQ-73" value="陈列快照" style="shape=document;whiteSpace=wrap;html=1;boundedLbl=1;strokeColor=#000000;fillColor=#FFFFFF;" parent="1" vertex="1">
          <mxGeometry x="160" y="50" width="120" height="60" as="geometry" />
        </mxCell>
        <mxCell id="ejTYExqUI6OF1oC2EcKi-32" style="edgeStyle=orthogonalEdgeStyle;rounded=0;orthogonalLoop=1;jettySize=auto;html=1;exitX=1;exitY=0.5;exitDx=0;exitDy=0;dashed=1;" edge="1" parent="1" source="GCCHpUo1PIDC4ZOt7AxQ-74" target="GCCHpUo1PIDC4ZOt7AxQ-11">
          <mxGeometry relative="1" as="geometry" />
        </mxCell>
        <mxCell id="GCCHpUo1PIDC4ZOt7AxQ-74" value="上游店品清单" style="shape=document;whiteSpace=wrap;html=1;boundedLbl=1;strokeColor=#000000;fillColor=#FFFFFF;" parent="1" vertex="1">
          <mxGeometry x="160" y="355" width="120" height="70" as="geometry" />
        </mxCell>
        <mxCell id="ejTYExqUI6OF1oC2EcKi-33" style="edgeStyle=orthogonalEdgeStyle;rounded=0;orthogonalLoop=1;jettySize=auto;html=1;exitX=1;exitY=0.5;exitDx=0;exitDy=0;entryX=0;entryY=0.5;entryDx=0;entryDy=0;dashed=1;" edge="1" parent="1" source="GCCHpUo1PIDC4ZOt7AxQ-75" target="GCCHpUo1PIDC4ZOt7AxQ-19">
          <mxGeometry relative="1" as="geometry" />
        </mxCell>
        <mxCell id="GCCHpUo1PIDC4ZOt7AxQ-75" value="店品滞销品清单" style="shape=document;whiteSpace=wrap;html=1;boundedLbl=1;strokeColor=#000000;fillColor=#FFFFFF;" parent="1" vertex="1">
          <mxGeometry x="150" y="555" width="120" height="80" as="geometry" />
        </mxCell>
        <mxCell id="ejTYExqUI6OF1oC2EcKi-35" style="edgeStyle=orthogonalEdgeStyle;rounded=0;orthogonalLoop=1;jettySize=auto;html=1;exitX=1;exitY=0.5;exitDx=0;exitDy=0;entryX=0;entryY=0.25;entryDx=0;entryDy=0;dashed=1;" edge="1" parent="1" source="GCCHpUo1PIDC4ZOt7AxQ-76" target="GCCHpUo1PIDC4ZOt7AxQ-43">
          <mxGeometry relative="1" as="geometry" />
        </mxCell>
        <mxCell id="GCCHpUo1PIDC4ZOt7AxQ-76" value="陈列快照" style="shape=document;whiteSpace=wrap;html=1;boundedLbl=1;strokeColor=#000000;fillColor=#FFFFFF;" parent="1" vertex="1">
          <mxGeometry x="160" y="740" width="120" height="80" as="geometry" />
        </mxCell>
        <mxCell id="krz_2XrXr_R0RCQD7uE6-6" value="" style="edgeStyle=none;rounded=0;orthogonalLoop=1;jettySize=auto;html=1;" parent="1" source="krz_2XrXr_R0RCQD7uE6-1" target="krz_2XrXr_R0RCQD7uE6-5" edge="1">
          <mxGeometry relative="1" as="geometry" />
        </mxCell>
        <mxCell id="krz_2XrXr_R0RCQD7uE6-7" value="是" style="edgeLabel;html=1;align=center;verticalAlign=middle;resizable=0;points=[];" parent="krz_2XrXr_R0RCQD7uE6-6" vertex="1" connectable="0">
          <mxGeometry x="-0.1201" y="2" relative="1" as="geometry">
            <mxPoint x="23" y="2" as="offset" />
          </mxGeometry>
        </mxCell>
        <mxCell id="krz_2XrXr_R0RCQD7uE6-18" value="" style="edgeStyle=none;rounded=0;orthogonalLoop=1;jettySize=auto;html=1;" parent="1" source="krz_2XrXr_R0RCQD7uE6-1" target="krz_2XrXr_R0RCQD7uE6-17" edge="1">
          <mxGeometry relative="1" as="geometry" />
        </mxCell>
        <mxCell id="krz_2XrXr_R0RCQD7uE6-1" value="delta &amp;lt; 0" style="rhombus;whiteSpace=wrap;html=1;" parent="1" vertex="1">
          <mxGeometry x="435" y="1040" width="110" height="80" as="geometry" />
        </mxCell>
        <mxCell id="krz_2XrXr_R0RCQD7uE6-4" style="rounded=0;orthogonalLoop=1;jettySize=auto;html=1;exitX=1;exitY=0.5;exitDx=0;exitDy=0;entryX=0;entryY=0.5;entryDx=0;entryDy=0;dashed=1;" parent="1" source="krz_2XrXr_R0RCQD7uE6-3" target="krz_2XrXr_R0RCQD7uE6-1" edge="1">
          <mxGeometry relative="1" as="geometry" />
        </mxCell>
        <mxCell id="krz_2XrXr_R0RCQD7uE6-3" value="delta = &lt;br&gt;在架目标-不在架目标" style="ellipse;whiteSpace=wrap;html=1;strokeColor=#8A8A8A;fillColor=#FFFFFF;" parent="1" vertex="1">
          <mxGeometry x="260" y="1040" width="120" height="80" as="geometry" />
        </mxCell>
        <mxCell id="krz_2XrXr_R0RCQD7uE6-5" value="8：运筹填品问题" style="whiteSpace=wrap;html=1;align=left;" parent="1" vertex="1">
          <mxGeometry x="730" y="1050" width="120" height="60" as="geometry" />
        </mxCell>
        <mxCell id="krz_2XrXr_R0RCQD7uE6-11" style="edgeStyle=none;rounded=0;orthogonalLoop=1;jettySize=auto;html=1;exitX=0.5;exitY=1;exitDx=0;exitDy=0;" parent="1" source="krz_2XrXr_R0RCQD7uE6-10" target="krz_2XrXr_R0RCQD7uE6-1" edge="1">
          <mxGeometry relative="1" as="geometry" />
        </mxCell>
        <mxCell id="krz_2XrXr_R0RCQD7uE6-10" value="调用运筹接口&lt;br&gt;（周对周、12）" style="rounded=0;whiteSpace=wrap;html=1;" parent="1" vertex="1">
          <mxGeometry x="431" y="950" width="120" height="60" as="geometry" />
        </mxCell>
        <mxCell id="krz_2XrXr_R0RCQD7uE6-16" style="edgeStyle=none;rounded=0;orthogonalLoop=1;jettySize=auto;html=1;exitX=0.75;exitY=0;exitDx=0;exitDy=0;" parent="1" source="GCCHpUo1PIDC4ZOt7AxQ-43" target="GCCHpUo1PIDC4ZOt7AxQ-43" edge="1">
          <mxGeometry relative="1" as="geometry" />
        </mxCell>
        <mxCell id="krz_2XrXr_R0RCQD7uE6-17" value="9. 上架收益低" style="whiteSpace=wrap;html=1;align=left;" parent="1" vertex="1">
          <mxGeometry x="431" y="1160" width="120" height="60" as="geometry" />
        </mxCell>
        <mxCell id="krz_2XrXr_R0RCQD7uE6-25" value="2：不可订货（非问题），在预陈列而不在一刷" style="whiteSpace=wrap;html=1;align=left;" parent="1" vertex="1">
          <mxGeometry x="727.5" y="240" width="162.5" height="60" as="geometry" />
        </mxCell>
        <mxCell id="krz_2XrXr_R0RCQD7uE6-30" value="目前（20210301） psdAmount取的是商品部给的 expectedGain 值" style="shape=note;whiteSpace=wrap;html=1;backgroundOutline=1;darkOpacity=0.05;" parent="1" vertex="1">
          <mxGeometry x="1020" y="400" width="190" height="100" as="geometry" />
        </mxCell>
        <mxCell id="ejTYExqUI6OF1oC2EcKi-6" value="" style="edgeStyle=orthogonalEdgeStyle;rounded=0;orthogonalLoop=1;jettySize=auto;html=1;" edge="1" parent="1" source="ejTYExqUI6OF1oC2EcKi-3" target="ejTYExqUI6OF1oC2EcKi-5">
          <mxGeometry relative="1" as="geometry" />
        </mxCell>
        <mxCell id="ejTYExqUI6OF1oC2EcKi-12" value="否" style="edgeLabel;html=1;align=center;verticalAlign=middle;resizable=0;points=[];" vertex="1" connectable="0" parent="ejTYExqUI6OF1oC2EcKi-6">
          <mxGeometry x="0.2" y="2" relative="1" as="geometry">
            <mxPoint x="-3" as="offset" />
          </mxGeometry>
        </mxCell>
        <mxCell id="ejTYExqUI6OF1oC2EcKi-20" style="edgeStyle=orthogonalEdgeStyle;rounded=0;orthogonalLoop=1;jettySize=auto;html=1;exitX=1;exitY=0.5;exitDx=0;exitDy=0;entryX=0;entryY=0.5;entryDx=0;entryDy=0;" edge="1" parent="1" source="ejTYExqUI6OF1oC2EcKi-3" target="ejTYExqUI6OF1oC2EcKi-18">
          <mxGeometry relative="1" as="geometry" />
        </mxCell>
        <mxCell id="ejTYExqUI6OF1oC2EcKi-3" value="&lt;font style=&quot;font-size: 14px&quot;&gt;是否在一刷&lt;/font&gt;" style="rhombus;whiteSpace=wrap;html=1;" vertex="1" parent="1">
          <mxGeometry x="418" y="110" width="146" height="80" as="geometry" />
        </mxCell>
        <mxCell id="ejTYExqUI6OF1oC2EcKi-7" style="edgeStyle=orthogonalEdgeStyle;rounded=0;orthogonalLoop=1;jettySize=auto;html=1;exitX=0.5;exitY=1;exitDx=0;exitDy=0;entryX=0.5;entryY=0;entryDx=0;entryDy=0;" edge="1" parent="1" source="ejTYExqUI6OF1oC2EcKi-5" target="GCCHpUo1PIDC4ZOt7AxQ-11">
          <mxGeometry relative="1" as="geometry" />
        </mxCell>
        <mxCell id="ejTYExqUI6OF1oC2EcKi-15" value="否" style="edgeLabel;html=1;align=center;verticalAlign=middle;resizable=0;points=[];" vertex="1" connectable="0" parent="ejTYExqUI6OF1oC2EcKi-7">
          <mxGeometry x="-0.2346" relative="1" as="geometry">
            <mxPoint as="offset" />
          </mxGeometry>
        </mxCell>
        <mxCell id="ejTYExqUI6OF1oC2EcKi-19" style="edgeStyle=orthogonalEdgeStyle;rounded=0;orthogonalLoop=1;jettySize=auto;html=1;exitX=1;exitY=0.5;exitDx=0;exitDy=0;entryX=0;entryY=0.5;entryDx=0;entryDy=0;" edge="1" parent="1" source="ejTYExqUI6OF1oC2EcKi-5" target="krz_2XrXr_R0RCQD7uE6-25">
          <mxGeometry relative="1" as="geometry" />
        </mxCell>
        <mxCell id="ejTYExqUI6OF1oC2EcKi-21" value="是" style="edgeLabel;html=1;align=center;verticalAlign=middle;resizable=0;points=[];" vertex="1" connectable="0" parent="ejTYExqUI6OF1oC2EcKi-19">
          <mxGeometry x="-0.633" y="3" relative="1" as="geometry">
            <mxPoint as="offset" />
          </mxGeometry>
        </mxCell>
        <mxCell id="ejTYExqUI6OF1oC2EcKi-5" value="&lt;font style=&quot;font-size: 14px&quot;&gt;是否在预陈列&lt;/font&gt;" style="rhombus;whiteSpace=wrap;html=1;" vertex="1" parent="1">
          <mxGeometry x="418" y="230" width="146" height="80" as="geometry" />
        </mxCell>
        <mxCell id="ejTYExqUI6OF1oC2EcKi-13" style="edgeStyle=orthogonalEdgeStyle;rounded=0;orthogonalLoop=1;jettySize=auto;html=1;exitX=0.5;exitY=1;exitDx=0;exitDy=0;entryX=0.5;entryY=0;entryDx=0;entryDy=0;" edge="1" parent="1" source="ejTYExqUI6OF1oC2EcKi-8" target="GCCHpUo1PIDC4ZOt7AxQ-11">
          <mxGeometry relative="1" as="geometry">
            <Array as="points">
              <mxPoint x="630" y="350" />
            </Array>
          </mxGeometry>
        </mxCell>
        <mxCell id="ejTYExqUI6OF1oC2EcKi-14" value="否" style="edgeLabel;html=1;align=center;verticalAlign=middle;resizable=0;points=[];" vertex="1" connectable="0" parent="ejTYExqUI6OF1oC2EcKi-13">
          <mxGeometry x="-0.3455" relative="1" as="geometry">
            <mxPoint as="offset" />
          </mxGeometry>
        </mxCell>
        <mxCell id="ejTYExqUI6OF1oC2EcKi-16" style="edgeStyle=orthogonalEdgeStyle;rounded=0;orthogonalLoop=1;jettySize=auto;html=1;exitX=1;exitY=0.5;exitDx=0;exitDy=0;entryX=0;entryY=0.5;entryDx=0;entryDy=0;" edge="1" parent="1" source="ejTYExqUI6OF1oC2EcKi-8" target="GCCHpUo1PIDC4ZOt7AxQ-13">
          <mxGeometry relative="1" as="geometry" />
        </mxCell>
        <mxCell id="ejTYExqUI6OF1oC2EcKi-17" value="是" style="edgeLabel;html=1;align=center;verticalAlign=middle;resizable=0;points=[];" vertex="1" connectable="0" parent="ejTYExqUI6OF1oC2EcKi-16">
          <mxGeometry x="-0.5826" y="2" relative="1" as="geometry">
            <mxPoint as="offset" />
          </mxGeometry>
        </mxCell>
        <mxCell id="ejTYExqUI6OF1oC2EcKi-8" value="是否在陈列" style="rhombus;whiteSpace=wrap;html=1;" vertex="1" parent="1">
          <mxGeometry x="590" y="40" width="80" height="80" as="geometry" />
        </mxCell>
        <mxCell id="ejTYExqUI6OF1oC2EcKi-9" value="" style="endArrow=classic;html=1;entryX=0.5;entryY=0;entryDx=0;entryDy=0;exitX=1;exitY=0.5;exitDx=0;exitDy=0;edgeStyle=orthogonalEdgeStyle;" edge="1" parent="1" source="GCCHpUo1PIDC4ZOt7AxQ-4" target="ejTYExqUI6OF1oC2EcKi-8">
          <mxGeometry width="50" height="50" relative="1" as="geometry">
            <mxPoint x="560" y="30" as="sourcePoint" />
            <mxPoint x="610" y="-20" as="targetPoint" />
          </mxGeometry>
        </mxCell>
        <mxCell id="ejTYExqUI6OF1oC2EcKi-10" value="否" style="edgeLabel;html=1;align=center;verticalAlign=middle;resizable=0;points=[];" vertex="1" connectable="0" parent="ejTYExqUI6OF1oC2EcKi-9">
          <mxGeometry x="-0.2607" y="-4" relative="1" as="geometry">
            <mxPoint as="offset" />
          </mxGeometry>
        </mxCell>
        <mxCell id="ejTYExqUI6OF1oC2EcKi-18" value="1：12在架（非问题）" style="whiteSpace=wrap;html=1;align=left;" vertex="1" parent="1">
          <mxGeometry x="727.5" y="120" width="152.5" height="60" as="geometry" />
        </mxCell>
        <mxCell id="ejTYExqUI6OF1oC2EcKi-29" style="edgeStyle=orthogonalEdgeStyle;rounded=0;orthogonalLoop=1;jettySize=auto;html=1;exitX=1;exitY=0.5;exitDx=0;exitDy=0;dashed=1;" edge="1" parent="1" source="ejTYExqUI6OF1oC2EcKi-28" target="ejTYExqUI6OF1oC2EcKi-3">
          <mxGeometry relative="1" as="geometry" />
        </mxCell>
        <mxCell id="ejTYExqUI6OF1oC2EcKi-28" value="一刷快照" style="shape=document;whiteSpace=wrap;html=1;boundedLbl=1;strokeColor=#000000;fillColor=#FFFFFF;" vertex="1" parent="1">
          <mxGeometry x="160" y="120" width="120" height="60" as="geometry" />
        </mxCell>
        <mxCell id="ejTYExqUI6OF1oC2EcKi-31" style="edgeStyle=orthogonalEdgeStyle;rounded=0;orthogonalLoop=1;jettySize=auto;html=1;exitX=1;exitY=0.5;exitDx=0;exitDy=0;entryX=0;entryY=0.5;entryDx=0;entryDy=0;dashed=1;" edge="1" parent="1" source="ejTYExqUI6OF1oC2EcKi-30" target="ejTYExqUI6OF1oC2EcKi-5">
          <mxGeometry relative="1" as="geometry" />
        </mxCell>
        <mxCell id="ejTYExqUI6OF1oC2EcKi-30" value="预陈列快照" style="shape=document;whiteSpace=wrap;html=1;boundedLbl=1;strokeColor=#000000;fillColor=#FFFFFF;" vertex="1" parent="1">
          <mxGeometry x="160" y="240" width="120" height="60" as="geometry" />
        </mxCell>
      </root>
    </mxGraphModel>
  </diagram>
</mxfile>
